<svg width="32" height="32" viewBox="0 0 24 24" fill="none" xmlns="http://www.w3.org/2000/svg">
  <!-- Flame (solid orange) -->
  <path
    d="M12 17.5C11.5 19 10 21.5 10 21.5C10 21.5 12 20.5 12 19.5C12 20.5 14 21.5 14 21.5C14 21.5 12.5 19 12 17.5Z"
    fill="#F97316"
  />
  <!-- Inner Flame (solid yellow) -->
  <path
    d="M12 18C11.8 19 11 20.5 11 20.5C11 20.5 12 20 12 19.3C12 20 13 20.5 13 20.5C13 20.5 12.2 19 12 18Z"
    fill="#FCD34D"
  />
  <!-- Rocket wings -->
  <path
    d="M7 14.5L4.5 17C4.2 17.3 4 17.8 4 18.2V20L7.5 18L7 14.5Z"
    fill="#4F46E5"
    opacity="0.9"
  />
  <path
    d="M17 14.5L19.5 17C19.8 17.3 20 17.8 20 18.2V20L16.5 18L17 14.5Z"
    fill="#7C3AED"
    opacity="0.9"
  />
  <!-- Rocket main body (solid light purple) -->
  <path
    d="M12 2C12 2 7 6 7 13C7 16 9.5 18 12 18C14.5 18 17 16 17 13C17 6 12 2 12 2Z"
    fill="#A78BFA"
  />
  <!-- Window -->
  <circle cx="12" cy="10" r="2.5" fill="#0f172a" stroke="#ffffff" strokeWidth="1" />
  <circle cx="11.5" cy="9.5" r="0.8" fill="#ffffff" />
  <!-- Fine lines/details -->
  <path d="M12 2V5" stroke="#ffffff" strokeWidth="0.8" opacity="0.6" />
</svg>
